<svg id="Calque_1" data-name="Calque 1" xmlns="http://www.w3.org/2000/svg" viewBox="0 0 1313.05 89.94"><defs><style>.cls-1{fill:#fcfcfc;}.cls-2{fill:#fff;}</style></defs><path class="cls-1" d="M1121.51,331.08v-.2l-1106.14-3,.09-34,1105.76,3,0-3.4q-.23-24.92-.42-49.84l204.7,88.66Z" transform="translate(-14.86 -242.87)"/><path class="cls-2" d="M1121.28,244.4l102.53,44.41,99.21,43-99.41-.59-101.6-.61v-.2h-1l-1105.14-3,.09-33,1104.75,3h1v-1.65q-.23-25.65-.43-51.33m-1-1.53q.21,26.76.45,53.51L15,293.4l-.1,35,1106.15,3v.2l206.9,1.23-207.65-89.94Z" transform="translate(-14.86 -242.87)"/></svg>